<svg xmlns="http://www.w3.org/2000/svg" viewBox="0 0 1920 600">
  <defs>
    <linearGradient id="bg" x1="0%" y1="0%" x2="100%" y2="100%">
      <stop offset="0%" style="stop-color:#0a1220;stop-opacity:1" />
      <stop offset="100%" style="stop-color:#111E3C;stop-opacity:1" />
    </linearGradient>
    <radialGradient id="dimGlow" cx="50%" cy="50%" r="60%">
      <stop offset="0%" style="stop-color:#D8C08C;stop-opacity:0.08" />
      <stop offset="100%" style="stop-color:#D8C08C;stop-opacity:0" />
    </radialGradient>
  </defs>
  <rect width="1920" height="600" fill="url(#bg)"/>
  <rect width="1920" height="600" fill="url(#dimGlow)"/>
  <!-- Distant event silhouettes -->
  <g opacity="0.08" fill="#D8C08C">
    <circle cx="300" cy="350" r="12"/>
    <rect x="290" y="362" width="20" height="40" rx="6"/>
    <circle cx="350" cy="345" r="11"/>
    <rect x="341" y="356" width="18" height="42" rx="6"/>
    <circle cx="500" cy="355" r="10"/>
    <rect x="492" y="365" width="16" height="38" rx="5"/>
    <circle cx="700" cy="348" r="12"/>
    <rect x="690" y="360" width="20" height="44" rx="6"/>
    <circle cx="900" cy="352" r="11"/>
    <rect x="891" y="363" width="18" height="40" rx="6"/>
    <circle cx="1100" cy="350" r="10"/>
    <rect x="1092" y="360" width="16" height="42" rx="5"/>
    <circle cx="1300" cy="348" r="12"/>
    <rect x="1290" y="360" width="20" height="44" rx="6"/>
    <circle cx="1500" cy="355" r="11"/>
    <rect x="1491" y="366" width="18" height="38" rx="6"/>
    <circle cx="1650" cy="350" r="10"/>
    <rect x="1642" y="360" width="16" height="42" rx="5"/>
  </g>
  <!-- Distant lights -->
  <circle cx="400" cy="200" r="3" fill="#D8C08C" opacity="0.15"/>
  <circle cx="700" cy="180" r="2" fill="#D8C08C" opacity="0.12"/>
  <circle cx="960" cy="190" r="3" fill="#D8C08C" opacity="0.18"/>
  <circle cx="1200" cy="195" r="2" fill="#D8C08C" opacity="0.12"/>
  <circle cx="1500" cy="185" r="3" fill="#D8C08C" opacity="0.15"/>
  <!-- Faint string lights -->
  <path d="M0,150 Q480,180 960,150 Q1440,120 1920,150" stroke="#D8C08C" stroke-width="0.5" fill="none" opacity="0.1"/>
</svg>